<?xml version="1.0" encoding="UTF-8" standalone="no"?>
<svg width="40px" height="49px" viewBox="0 0 40 49" version="1.1" xmlns="http://www.w3.org/2000/svg" xmlns:xlink="http://www.w3.org/1999/xlink" xmlns:sketch="http://www.bohemiancoding.com/sketch/ns">
    <!-- Generator: Sketch Beta 3.5.1 (25233) - http://www.bohemiancoding.com/sketch -->
    <title>icon_location_pin</title>
    <desc>Created with Sketch Beta.</desc>
    <defs>
        <filter x="-50%" y="-50%" width="200%" height="200%" filterUnits="objectBoundingBox" id="filter-1">
            <feOffset dx="0" dy="2" in="SourceAlpha" result="shadowOffsetOuter1"></feOffset>
            <feGaussianBlur stdDeviation="2" in="shadowOffsetOuter1" result="shadowBlurOuter1"></feGaussianBlur>
            <feColorMatrix values="0 0 0 0 0   0 0 0 0 0   0 0 0 0 0  0 0 0 0.143435802 0" in="shadowBlurOuter1" type="matrix" result="shadowMatrixOuter1"></feColorMatrix>
            <feMerge>
                <feMergeNode in="shadowMatrixOuter1"></feMergeNode>
                <feMergeNode in="SourceGraphic"></feMergeNode>
            </feMerge>
        </filter>
    </defs>
    <g id="Page-1" stroke="none" stroke-width="1" fill="none" fill-rule="evenodd" sketch:type="MSPage">
        <g id="CC-page-v3_1" sketch:type="MSArtboardGroup" transform="translate(-297.000000, -372.000000)">
            <g id="Header" sketch:type="MSLayerGroup">
                <g id="Title" sketch:type="MSShapeGroup">
                    <g id="Card" transform="translate(160.000000, 310.000000)">
                        <g id="icon_location_pin" transform="translate(141.000000, 64.000000)">
                            <g id="Group" transform="translate(0.640000, 0.280000)">
                                <ellipse id="Oval-3" opacity="0.108208955" fill="#000000" cx="15.86" cy="44.22" rx="12.5" ry="2.5"></ellipse>
                                <path d="M15.36,0.72 C7.07625,0.72 0.36,7.5258 0.36,15.92 C0.36,24.3142 15.36,38.72 15.36,38.72 C15.36,38.72 30.36,24.3142 30.36,15.92 C30.36,7.5258 23.64375,0.72 15.36,0.72 L15.36,0.72 Z" id="Shape" stroke-opacity="0.89806952" stroke="#FFFFFF" stroke-width="2" fill="#F98F52" filter="url(#filter-1)"></path>
                                <path d="M15.68,9.3376 L15.68,8 L14.4,8 L14.4,9.3376 C12.58496,9.64288 11.2,11.21792 11.2,13.12 L18.88,13.12 C18.88,11.21792 17.49504,9.64288 15.68,9.3376 L15.68,9.3376 Z" id="Shape" fill="#FFFFFF"></path>
                                <path d="M21.44,17.6 L19.52,17.6 L19.52,15.04 C19.52,14.68672 19.23328,14.4 18.88,14.4 L11.2,14.4 C10.84672,14.4 10.56,14.68672 10.56,15.04 L10.56,17.6 L8.64,17.6 C8.28672,17.6 8,17.88672 8,18.24 L8,20.8 C8,21.15392 8.28672,21.44 8.64,21.44 L21.44,21.44 C21.79328,21.44 22.08,21.15392 22.08,20.8 L22.08,18.24 C22.08,17.88672 21.79328,17.6 21.44,17.6 L21.44,17.6 Z M10.56,20.16 L9.28,20.16 L9.28,18.88 L10.56,18.88 L10.56,20.16 L10.56,20.16 Z M13.12,20.16 L11.84,20.16 L11.84,18.88 L13.12,18.88 L13.12,20.16 L13.12,20.16 Z M13.12,16.96 L11.84,16.96 L11.84,15.68 L13.12,15.68 L13.12,16.96 L13.12,16.96 Z M15.68,20.16 L14.4,20.16 L14.4,18.88 L15.68,18.88 L15.68,20.16 L15.68,20.16 Z M15.68,16.96 L14.4,16.96 L14.4,15.68 L15.68,15.68 L15.68,16.96 L15.68,16.96 Z M18.24,20.16 L16.96,20.16 L16.96,18.88 L18.24,18.88 L18.24,20.16 L18.24,20.16 Z M18.24,16.96 L16.96,16.96 L16.96,15.68 L18.24,15.68 L18.24,16.96 L18.24,16.96 Z M20.8,20.16 L19.52,20.16 L19.52,18.88 L20.8,18.88 L20.8,20.16 L20.8,20.16 Z" id="Shape" fill="#FFFFFF"></path>
                            </g>
                        </g>
                    </g>
                </g>
            </g>
        </g>
    </g>
</svg>
